# xmcd CD database file
#
# Track frame offsets:
#	187
#	16052
#	32955
#	51950
#	72810
#	79957
#	97377
#	118370
#	135712
#	153465
#	178230
#	193112
#
# Disc length: 2916 seconds
#
# Revision: 12
# Processed by: cddbd v1.5.2PL0 Copyright (c) Steve Scherf et al.
# Submitted via: CDex 1.70beta2
#
DISCID=b20b620c
DTITLE=山崎まさよし - HOME
DYEAR=1997
DGENRE=JPop
TTITLE0=Fat Mama
TTITLE1=アドレナリン
TTITLE2=セロリ
TTITLE3=ベンジャミン
TTITLE4=スクリーミン'97
TTITLE5=名前のない鳥
TTITLE6=コペルニクスの卵
TTITLE7=僕らの煩悩
TTITLE8=昼休み
TTITLE9=One more time, One more chance
TTITLE10=ヤサ男の夢
TTITLE11=HOME
EXTD=YEAR: 1997
EXTT0=
EXTT1=
EXTT2=
EXTT3=
EXTT4=
EXTT5=
EXTT6=
EXTT7=
EXTT8=
EXTT9=
EXTT10=
EXTT11=
PLAYORDER=
